<svg xmlns="http://www.w3.org/2000/svg" fill-rule="evenodd" stroke-miterlimit="1.414" viewBox="0 0 450 276" clip-rule="evenodd" stroke-linejoin="round">
  <path d="M0 0h449.55v276.23H0z"/>
  <g fill-rule="nonzero">
    <path fill="#231f20" d="M120.36 0h148.57c3.08 5.51 4.95 11.65 5.02 18-.92 20.73 3.64 41.6 10.92 60.82-1.78 2.61-4.48.64-4.98-1.78-9.29-28.59-34.98-48.78-63.89-55.05-35.94-6.73-76.32 7.49-98.8 36.36 5.84-19.41-3.32-39.93 3.16-58.35z"/>
    <path fill="#5f4430" d="M190.3 27.24c13.64-2.28 26.75 2.54 39.19 7.2 7.98 8.87 21.17 12.01 26.89 23.1-8.29 3.8-23.83-.78-25.43 11.47-8.42 8.69-21.43 6.57-28.42-2.58-2.46-6.11 19.79 2.34 13.28-4.21 6.92.86 25.39 1.36 21.08-10.69-5.98.76-11.36-2.17-17.17-2.56 2.19 3.27 8.87 2.23 8.36 7.04-10.64-3-22.66-3.7-31.21 4.61-10.46-1.57-7.44-14.33-14.13-20.58 6.9-6.42 18.88-5.09 24.15-10.63-13.07-2.03-28.94.44-41.37 7.19-4.71 4.46 5.44 6.08 4.79 11.12 2.55 4.88-.29 25.42-7 14.28.52 6.46-7.47 3.13-11.52 4.76 1.08-6.31 13.97.75 8.8-4.33-8.8-4.06-18-.94-26.65 1.55.71-4.96 7.72-5.35 11.44-7.85-3.92.19-7.72 1.04-11.56 1.73 2.12-8.34 12.16-9.72 19.02-12.04 6.59-13.51 24.09-16.05 37.46-18.58z"/>
    <path fill="#9d755a" d="M165.52 36.6c12.43-6.75 28.3-9.22 41.37-7.19-5.27 5.54-17.25 4.21-24.15 10.63 6.69 6.25 3.67 19.01 14.13 20.58 7.1-1.97 12.48-.6 18.94 1.6 6.51 6.55-15.74-1.9-13.28 4.21-1.94-9.02-13.73.95-17.23-7.72 1.37-4.37-3.62-12.38-7.94-8.3.56 12.68-9.24 24.5-6.66 36.9 9.31.73 20.75 9.16 29.65 2.97 3.94-8-15.08-4.3-8.62-12.58 8.35-5.45 9.41 5.18 15.83 6.88 6.47 4.17 18.65 16.6 24.42 5.39 1.36-3.41 1.18-7.66-1.54-10.39 2.58-2.67 8.29-13.18.51-10.57 1.6-12.25 17.14-7.67 25.43-11.47 7.75 6.87 10.07 16.66 10.64 26.65.7 6.67 4.07 14 2.01 20.33-2.82-8.38-3.45-19.08-5.76-27.23-7.62 5.89-8.77-8.28-15.91-6.03-3.64 2.57-3.36 8.06-8.32 8.96-.87 9.54-2.49 20.33-11.23 26.58-4.76 6.35-4.41 15.28-10.8 20.76-1.28-1.34-2.54-2.71-3.96-3.9-2.96-2.55-7.62-2.59-9.34-6.51 5.34 3.53 15.65 6.07 16.36-3.05-6.05-3.29-6.28-13.78-14.14-13.65.05-2.29 1.23-8.06-2.77-7.26-14.07 3.28-28.93-1.5-42.18 3.73-2.52-.25-5.35 1.59-3.01 4.03-3.81 4.45 6.12 23.33-4.43 17.51-10.22-1.38-2.71-15.01-11.86-16.25-3.05-.88-6.25-5.2-3.4-7.92 4.03-3.37-3.47-10.13 2.53-12.14 3.93 3.34 8.81.61 11.39-3 2.7-2.86 5.52-5.97 5.98-10.06-2.66-.44-10.05 4.44-8.48-.2.69-.71 1.39-1.43 2.09-2.13 4.05-1.63 12.04 1.7 11.52-4.76 6.71 11.14 9.55-9.4 7-14.28.65-5.04-9.5-6.66-4.79-11.12z"/>
    <path fill="#b99886" d="M214.54 36.49c6.29-3.6 8.1 6.4 6.34 10.26-5.65.57-11.3 1.24-16.88 2.26-.7-6.14 5.33-10.61 10.54-12.52z"/>
    <path fill="#cfa995" d="M177.36 50.41c4.32-4.08 9.31 3.93 7.94 8.3 3.5 8.67 15.29-1.3 17.23 7.72 6.99 9.15 20 11.27 28.42 2.58 7.78-2.61 2.07 7.9-.51 10.57 2.72 2.73 2.9 6.98 1.54 10.39-5.77 11.21-17.95-1.22-24.42-5.39-6.42-1.7-7.48-12.33-15.83-6.88-6.46 8.28 12.56 4.58 8.62 12.58-8.9 6.19-20.34-2.24-29.65-2.97-2.58-12.4 7.22-24.22 6.66-36.9z"/>
    <path fill="#27160c" d="M219.72 48.97c5.81.39 11.19 3.32 17.17 2.56 4.31 12.05-14.16 11.55-21.08 10.69-6.46-2.2-11.84-3.57-18.94-1.6 8.55-8.31 20.57-7.61 31.21-4.61.51-4.81-6.17-3.77-8.36-7.04z"/>
    <path fill="#422d1e" d="M138.17 72.29c2.7-3.65 7.38-4.13 11.53-3.4-1.57 4.64 5.82-.24 8.48.2-.46 4.09-3.28 7.2-5.98 10.06-6.47 2.22-13.24 1.42-19.91 1.07-5.72 3.01 3.35 8.02-.19 11.87-4.3 3.96.32 9.51 2.5 13.32 6.55 7.36 10.76 16.47 16.97 24.02 9.28 8.96 14.09-22.53 19.83-10.42-2.68 1.1-9.91 8.99-3.69 5.73 5.33-5.59 12.28 2.91 17.57-1.51 4.22-4.52 9.52-2.33 13.69.72 4.39 6.85 9.57 2.21 14.08-.29 1.42 1.19 2.68 2.56 3.96 3.9 1.63 9.44 8.21 6.03 14.83 3.27 4.67-5.59 3.94-13.93 3.23-20.72 4.07-9.92 18.42-11.37 20.16-22.91 8.37-7.62 2.13 9.3 8.82 11.75-7.76 3.63 5.97 18.5 6.73 5.82.04 1.67.13 3.34.22 5.01-12.97 16.42-36.68 21.48-46.71 41.5-4.06 5.61-3.26 14.47-10.08 17.94-9.48 9.48-24.25 4.77-36.17 4.78-5.85 1.39-14.13-5.67-11.4-11.34 8.61 1.72 15.27-4.16 23.38-4.84-5.02 2.3-9.78 5.13-14.27 8.33 4.47 7.05 13.87-2.64 19.67 2.39 6.31 3.48 21.79.84 17.89-8.89-7.55.22-15.49-.86-23.29-1.83 8.21 3.34 21.96-6.34 11.96-13.25 5.28-3.99 10.13-.8 14.97 1.64-.1-9.13-4.64-13.66-13.56-11.93-9.89-6.91-17.43 6.95-25.92 1.22-3.81-1.64-7.52-.09-10.89 1.53-5.56 1.08-6.08 4.43-2.68 8.56-2.01 3.43-3.25 10.69-8.13 5.6-3.13-9.55-16.12-12.36-16.01-23.17-3.96-14.68-14.75-26.36-16.85-41.57-.37-5.5 4.67-9.19 8.11-12.67 3.95 1.6 6.95 5.16 11.34 6.02-.61-2.96-4.48-4.5-4.19-7.51z"/>
    <path fill="#6a4e39" d="M247.36 71.26c7.14-2.25 8.29 11.92 15.91 6.03 2.31 8.15 2.94 18.85 5.76 27.23 2.06-6.33-1.31-13.66-2.01-20.33 3.5-2.18 8.09-2.59 9.89 1.92 5.09 7.47-6.62 11.1-6.13 18.66-.76 12.68-14.49-2.19-6.73-5.82-6.69-2.45-.45-19.37-8.82-11.75-1.74 11.54-16.09 12.99-20.16 22.91.71 6.79 1.44 15.13-3.23 20.72-6.62 2.76-13.2 6.17-14.83-3.27 6.39-5.48 6.04-14.41 10.8-20.76 8.74-6.25 10.36-17.04 11.23-26.58 4.96-.9 4.68-6.39 8.32-8.96z"/>
    <path fill="#2b2a28" d="M309.79 75.03c10-1.65 24.08-3.99 29.28 7.76 2.84 7.85 9.08 13.69 12.89 21.06 4.05 9.34 5.37 19.77 10.64 28.53 11.47 10.63 14.77 27.46 28.08 36.9 11.4 21.23 38.8 17.62 59.32 19.96v42.64c-3.83-.47-7.71.23-11.44.4-8.87-10.42-17.17-24.2-31.62-27.53-4.22 1.18-8.02-6.08-11.21-2.16-1.53 5.77-6.72 15.53-13.6 9.35-9.76-7.59-23.41.91-32.6-7.52-6.34-7.09-15.93-7.13-24.73-6.57 7.83.72 14.95 5.22 21.35 10.07 8.4 4.37 20.59.39 27.88 4.21-5.68 9.22-12.56 18.97-17.08 29.4-2.59-11.98-13.4-18.17-22.01-25.59 4.76-1.03 9.63 4.44 13.56.01-3.06-3.56-7.43-4.23-11.2-1.69 4.3-5.96-5.67-10.2-9.47-5.13 2.05-10.42-10.02 6.93 0 0-.48 6.56 13.54 3.26.75 6.85 13.17 6.94 25.32 18.16 27.47 33.6-4.68 5.05-6.18 12.29-9.47 18.28-.86 2.65-1.32 5.39-1.85 8.14h-8.31c-1.94-2.88-8.08-13.63-7.94-5.51 3.01 4.8-1.68 1.18-3.55-.69 7.26-7.18-4.69-12.8-6.98-19.74-1.77-4.4-3.55.02-5.03 2.22-4.37-2.88 1.79-4.85.41-7.46-3.38-5.3-8.66-8.79-13.24-12.91-3.19-4.76-3.66 4.9-8.54 1.51-7.95 4.11-14.12 12.36-23.53 14.71 6.62 7.46-5.17-2.76-8.11 4.95 3.62 1.46 2.73 5.26-1.1 3.08-8.31-2.53-8.15 14.73-11.75 8.38-.31 4.51-2.85 8.43-6.37 11.46h-33.22c7.67-5.87 15.52-11.54 22.68-18.05-.44-.26-1.32-.77-1.76-1.02 6.61-11.8-5.54-36.15 12.35-38.94-.84 8.81 2.04 17.44 1.54 26.28 6.44-3.86 10.72-10.59 17.47-13.9 19.82-9.17 42.43-14.05 64.42-14.67 7.57-.66-1.56-3.99-5.79-2.45-2.02-3.45 2.39-4.59 3.62-7.26-4.63-4.12-11.87 9.81-3.62 7.26-10.19.9-11.84 1.97-4.22-3.24-4.59-8.47-13.91 5.54-21.3.95 11.17-4.7 20.84-12.81 32.07-17.98 20.31-9.23 42.15-26.48 65.16-14.98.09-5.82-8.88-5.91-12.84-7.31-23.04-6.12-42.15 13.35-64.03 16.56-8.07 7.39-19.98.46-27.48 8.67.5-7.81 11.15-8.53 11.78-16.54.48-5.88 11.6-14.13 11.48-2.97 3.08-4.82 19.44-14.08 6.22-16.83 1.56-5.62 7.68-8.39 13.22-7.25 2.04-6.25-5.17-9.86-7.41-15.15 7.53-2.4 12.24 6.88 19.06 1.96 5.41-1.64 8.44-8.06 9.69-12.8-4.93-3.26-14.68-16.62-16.96-5.46-3.78 7.15-11.89-6.54-16.3.63-5.94 3.06 8.84 9.78-3.24 9.02-9.03.63-8.99 11.34-15.29 15.49-6.86 5.78-12.04 13.9-17.64 20.22-6.97-1.17-4.9 12.24 1.31 9.57 3.24-6.76 11.5-16.03 19.21-11.51-1.32 9.7-12.14 14.43-20.17 18.4-4.02 4.28-5.87-4.73-9.43-4.49-5.48 1.38.34 9.86-5.87 10.21-4.46.28-13.43 9.38-13.6 2.17-7.41.15 3.81-7.16 3.26-11.6 2.69-8.15 13.42-12.75 13-22.07 2.36-4.06 2.88-8.82 3.62-13.38 8.17-2-3.11 16.71.24 20.62 8.52-8.11 11.74-20.53 17.67-30.58 2.62-8.9 14.48-4.43 17.94-13.11 7.54-8.7 11.33-20.24 16.46-30.49 4.61-9.82-8.58-12.47-14.2-14.95z"/>
    <path fill="#6e4e3a" d="M132.29 80.22c6.67.35 13.44 1.15 19.91-1.07-2.58 3.61-7.46 6.34-11.39 3-6 2.01 1.5 8.77-2.53 12.14-2.85 2.72.35 7.04 3.4 7.92 9.15 1.24 1.64 14.87 11.86 16.25 10.55 5.82.62-13.06 4.43-17.51.5 15.58 18.11 8.07 26.99 4.98 6.18-5.01 12.42 2.41 19.19-2.92-4.98 4.35-8.88 10.97-.44 14.14 1.72 3.92 6.38 3.96 9.34 6.51-4.51 2.5-9.69 7.14-14.08.29 2.4.67 7.49 2.68 5.97-1.75-6.35-1.44-11.72-5.34-18.65-4.51-3.57-3.8 7.25-3.43 9.88-1.79-1.3-7.63-9.37-10.98-14.77-4.74-6.08-3.84-1.17 11.12-10 7.85-5.74-12.11-10.55 19.38-19.83 10.42-6.21-7.55-10.42-16.66-16.97-24.02-2.18-3.81-6.8-9.36-2.5-13.32 3.54-3.85-5.53-8.86.19-11.87z"/>
    <path fill="#20150e" d="M141.11 140.93c-6.87-17.81-19.72-34.42-18.2-54.48 2.1 15.21 12.89 26.89 16.85 41.57-.11 10.81 12.88 13.62 16.01 23.17 4.88 5.09 6.12-2.17 8.13-5.6 11.8 5.7 26.02 2.63 38.08-1.02 10 6.91-3.75 16.59-11.96 13.25-8.11.68-14.77 6.56-23.38 4.84-2.73 5.67 5.55 12.73 11.4 11.34 11.92-.01 26.69 4.7 36.17-4.78 6.82-3.47 6.02-12.33 10.08-17.94 10.03-20.02 33.74-25.08 46.71-41.5 1.59 12.19 4.19 24.47 7.4 36.1 9.37-6.73 10.24-32.46 29.13-25.41-3.46 8.68-15.32 4.21-17.94 13.11-5.93 10.05-9.15 22.47-17.67 30.58-3.35-3.91 7.93-22.62-.24-20.62-4.12 3.57-6.84 14.39-14.1 8.88-9.47-4.02-10.04 14.98-18.64 15.64 2.64-5.82 5.56-12.13 5.97-18.82-8.82-6.08-13.53 7.9-15.14 14.56-4.03 11.35-17.59 8.3-25.94 13.94-13.19-.09-32.52 4.09-40.41-10.14-4.78-11.05-15.83-16.91-22.31-26.67z"/>
    <path fill="#25140c" d="M160.98 96.92c13.25-5.23 28.11-.45 42.18-3.73 4-.8 2.82 4.97 2.77 7.26-.6.85-1.19 1.71-1.78 2.56-6.77 5.33-13.01-2.09-19.19 2.92-8.88 3.09-26.49 10.6-26.99-4.98-2.34-2.44.49-4.28 3.01-4.03z"/>
    <path fill="#bd9987" d="M205.93 100.45c7.86-.13 8.09 10.36 14.14 13.65-.71 9.12-11.02 6.58-16.36 3.05-8.44-3.17-4.54-9.79.44-14.14.59-.85 1.18-1.71 1.78-2.56z"/>
    <path fill="#a58575" d="M181.4 111.16c5.4-6.24 13.47-2.89 14.77 4.74-2.63-1.64-13.45-2.01-9.88 1.79 6.93-.83 12.3 3.07 18.65 4.51 1.52 4.43-3.57 2.42-5.97 1.75-4.17-3.05-9.47-5.24-13.69-.72-5.29 4.42-12.24-4.08-17.57 1.51-6.22 3.26 1.01-4.63 3.69-5.73 8.83 3.27 3.92-11.69 10-7.85z"/>
    <path fill="#191817" d="M332.82 120.88c2.28-11.16 12.03 2.2 16.96 5.46-1.25 4.74-4.28 11.16-9.69 12.8-6.82 4.92-11.53-4.36-19.06-1.96 2.24 5.29 9.45 8.9 7.41 15.15-5.54-1.14-11.66 1.63-13.22 7.25 13.22 2.75-3.14 12.01-6.22 16.83.12-11.16-11-2.91-11.48 2.97-.63 8.01-11.28 8.73-11.78 16.54 7.5-8.21 19.41-1.28 27.48-8.67 21.88-3.21 40.99-22.68 64.03-16.56-20.5-.11-37.77 12.89-56.62 18.99-15.35 6.62-30.5 13.91-46.67 18.4-.1-2.88 1.31-5.47 2.01-8.19-10.16 4.53-19.59 14.19-31.67 12.52-22.47 3.66-33.97 23.96-49.97 36.9-6.8 1.05 10.95-10.77 7.05-14.01-12.51 4.23-10.76 19.88-18.94 28.06-2.57 3.63-.73 8.55-1.56 12.64h-4.72c-2.24-3.72.32-4.19.72-5.91-2.53-6.57-2.74 2.83-4.45-2.73-5.27-1.46 2.23 5.48-.85 8.64h-6.22c-3.01-17.27-20.93-25.13-28.79-39.61-11.85-10.3-29.4-14.15-36.47-29.55-4.33-7.05-6.37-15.46-11.08-22.3-1.53 9.6-5.54 20.15-6.85 30.52 6.34 10.95 18.41 21.51 28.72 29.99 3.8-1.35 1.23-17.3 6.98-12.67-.16 14.7-4.72 29.12-7.15 43.62H0v-41.09c9.98 4.6 14.22-10.01 12.51-17.37 7.25.92 13.3-1.32 15.94-8.36 10.33 6.69 19.08-6.35 16.81-16.92 8.76-4.98 25.92 5.07 26.57-9.51 2.88-1.69 7.55 1.28 10.76-1.1 8.65-2.41 2.03-14.61 8.47-19.16 3.84 8.95-1.37 20.59 5.69 28.79 6.43 12.37 17.56 21.06 29.34 27.64 2.5-1.2 14.21-1.79 9.95 2.97-14.96-2.2 1.44 10.71 4.56 2.78-1.35-5.15 4.86-4.42 8.29-5.52 2.16 7.04 3.54 16.37 11.27 19.78-6.73-.87-.67 6.62 3.66 2.94 10.8-8.84 23.44-17.2 38.16-12.85 2.63 2.18 14.91-1.08 7.85-4.38 13.35-10.31 30.03-18.66 36.17-35.64 4.87-12.31 16.53-20.06 22.06-32.08.42 9.32-10.31 13.92-13 22.07.55 4.44-10.67 11.75-3.26 11.6.17 7.21 9.14-1.89 13.6-2.17 6.21-.35.39-8.83 5.87-10.21 3.56-.24 5.41 8.77 9.43 4.49 8.03-3.97 18.85-8.7 20.17-18.4-7.71-4.52-15.97 4.75-19.21 11.51-6.21 2.67-8.28-10.74-1.31-9.57 5.6-6.32 10.78-14.44 17.64-20.22 6.3-4.15 6.26-14.86 15.29-15.49 12.08.76-2.7-5.96 3.24-9.02 4.41-7.17 12.52 6.52 16.3-.63z"/>
    <path fill="#010101" d="M129.54 126.4c7.27 2.64 6.22 16.79 13.53 21.49 12.88 10.83 18.8 32.37 38.57 32.56 15.55-.46 32.6.09 46.28-8.49-3.76 14.86 15.12 2.2 19.91 6.92-4.29 11.98-13.86 19.64-19.49 30.46-10.47 8.07-23.73 11.96-36.71 14.43-11.26-2.43-20.07 9.35-31.5 5.62-4.94 2.25-8.71-3.06-6.22-7.43-2.28-10.78-13.31-17.73-13.46-29.34.1-4.3-4.37-5.62-7.02-8.07 5.38-7.21-3.85-18.91-12.13-21.84-7.12-7.32-2.56 17.63-9.3 9.29-5.85-8.6-8.36 7.42-12.94 10.23-6.97-24.68 15.92-41.16 30.48-55.83z"/>
    <path fill="#b39d98" d="M177.47 135.5c8.49 5.73 16.03-8.13 25.92-1.22-9.41 9.41-26.1 10.84-36.81 2.75 3.37-1.62 7.08-3.17 10.89-1.53z"/>
    <path fill="#654c43" d="M203.39 134.28c8.92-1.73 13.46 2.8 13.56 11.93-4.84-2.44-9.69-5.63-14.97-1.64-12.06 3.65-26.28 6.72-38.08 1.02-3.4-4.13-2.88-7.48 2.68-8.56 10.71 8.09 27.4 6.66 36.81-2.75z"/>
    <path fill="#715542" d="M190.02 157.82c7.8.97 15.74 2.05 23.29 1.83 3.9 9.73-11.58 12.37-17.89 8.89-5.8-5.03-15.2 4.66-19.67-2.39 4.49-3.2 9.25-6.03 14.27-8.33z"/>
    <path fill="#090909" d="M320.63 189.68c18.85-6.1 36.12-19.1 56.62-18.99 3.96 1.4 12.93 1.49 12.84 7.31-23.01-11.5-44.85 5.75-65.16 14.98-11.23 5.17-20.9 13.28-32.07 17.98-4.58 4.07 1.23 7.2 2.91.78-3.27 8 11.8-3.77 9.95 2.85-6.67.94-13.14 2.91-19.83 3.69 11.55-6.68-8.78-2.7 0 0-9.83.85-18.42 6.37-26.14 12.09-6.75 3.31-11.03 10.04-17.47 13.9.5-8.84-2.38-17.47-1.54-26.28-17.89 2.79-5.74 27.14-12.35 38.94-6.98 7.53-16.29 12.15-23.79 19.07h-23.72c.83-4.09-1.01-9.01 1.56-12.64 8.18-8.18 6.43-23.83 18.94-28.06 3.9 3.24-13.85 15.06-7.05 14.01 16-12.94 27.5-33.24 49.97-36.9 12.08 1.67 21.51-7.99 31.67-12.52-.7 2.72-2.11 5.31-2.01 8.19 16.17-4.49 31.32-11.78 46.67-18.4zM82.17 215.06c1.31-10.37 5.32-20.92 6.85-30.52 4.71 6.84 6.75 15.25 11.08 22.3 7.07 15.4 24.62 19.25 36.47 29.55 7.86 14.48 25.78 22.34 28.79 39.61h-54.64c2.43-14.5 6.99-28.92 7.15-43.62-5.75-4.63-3.18 11.32-6.98 12.67-10.31-8.48-22.38-19.04-28.72-29.99z"/>
    <path fill="#1f1f1e" d="M324.8 197.85c8.8-.56 18.39-.52 24.73 6.57 9.19 8.43 22.84-.07 32.6 7.52 6.88 6.18 12.07-3.58 13.6-9.35 3.19-3.92 6.99 3.34 11.21 2.16 14.45 3.33 22.75 17.11 31.62 27.53 3.73-.17 7.61-.87 11.44-.4V276H349.45c2.51-3.81 9.51-8.67 1-6.65-4.67 6.8-2.52 3.85-3.87-1.49 3.29-5.99 4.79-13.23 9.47-18.28 1.55 16.28 4.09-2.54.9-8.05 4.52-10.43 11.4-20.18 17.08-29.4-7.29-3.82-19.48.16-27.88-4.21-6.4-4.85-13.52-9.35-21.35-10.07z"/>
    <path fill="#bbbcb2" d="M318.38 213.25c-8.25 2.55-1.01-11.38 3.62-7.26-1.23 2.67-5.64 3.81-3.62 7.26z"/>
    <path fill="#b5b7aa" d="M327.83 209.13c2.05-10.42-10.02 6.93 0 0z"/>
    <path fill="#bcbdb4" d="M292.86 210.96c7.39 4.59 16.71-9.42 21.3-.95-7.62 5.21-5.97 4.14 4.22 3.24 4.23-1.54 13.36 1.79 5.79 2.45-21.99.62-44.6 5.5-64.42 14.67 7.72-5.72 16.31-11.24 26.14-12.09 6.69-.78 13.16-2.75 19.83-3.69 1.85-6.62-13.22 5.15-9.95-2.85-1.68 6.42-7.49 3.29-2.91-.78z"/>
    <path fill="#c6c8c0" d="M327.83 209.13c3.8-5.07 13.77-.83 9.47 5.13 3.77-2.54 8.14-1.87 11.2 1.69-3.93 4.43-8.8-1.04-13.56-.01 8.61 7.42 19.42 13.61 22.01 25.59 3.19 5.51.65 24.33-.9 8.05-2.15-15.44-14.3-26.66-27.47-33.6 12.79-3.59-1.23-.29-.75-6.85z"/>
    <path fill="#a5a6a0" d="M285.89 218.28c11.55-6.68-8.78-2.7 0 0z"/>
    <path fill="#7a5f52" d="M176.53 230.48c9.54-7.56 22.3-2.99 33.3-5.84 7.06 3.3-5.22 6.56-7.85 4.38-14.72-4.35-27.36 4.01-38.16 12.85-4.33 3.68-10.39-3.81-3.66-2.94 6.7.83 10.74-6.16 16.37-8.45z"/>
    <path fill="#a4a59e" d="M291.55 233.42c4.88 3.39 5.35-6.27 8.54-1.51 4.58 4.12 9.86 7.61 13.24 12.91-6.2 8.4-10.36-6.85-16.9-8.3-1.65-1.16-4.51-.57-4.88-3.1z"/>
    <path fill="#ddded8" d="M268.02 248.13c9.41-2.35 15.58-10.6 23.53-14.71.37 2.53 3.23 1.94 4.88 3.1 6.54 1.45 10.7 16.7 16.9 8.3 1.38 2.61-4.78 4.58-.41 7.46 4.55 5.46 8.08 11.63 12.01 17.52 1.87 1.87 6.56 5.49 3.55.69-.14-8.12 6 2.63 7.94 5.51h-27.75c-10.85-2.64-2.38-15.41-10.35-21.29-10.12-11.27-22.32 12.46-33.42 5.41-3.13.31-6.08 1.69-8.71 3.36 8.69 2.68 9.48 11.58.23 12.52h-15.73c3.52-3.03 6.06-6.95 6.37-11.46 3.6 6.35 3.44-10.91 11.75-8.38 3.83 2.18 4.72-1.62 1.1-3.08 2.94-7.71 14.73 2.51 8.11-4.95z"/>
    <path fill="#7d7e78" d="M294.05 246.81c7.78 5.59 15.05 13.24 20.03 21.3-7.5-6.25-13.48-14.11-20.03-21.3z"/>
    <path fill="#9d9e97" d="M312.92 252.28c1.48-2.2 3.26-6.62 5.03-2.22 2.29 6.94 14.24 12.56 6.98 19.74-3.93-5.89-7.46-12.06-12.01-17.52z"/>
    <path fill="#34352f" d="M264.9 260.12c11.1 7.05 23.3-16.68 33.42-5.41 7.97 5.88-.5 18.65 10.35 21.29h-24.05c-7.12-.27-8.23-5.18-.7-7.25.64-9.84-10.97 1.93-8.18 7.25h-19.32c9.25-.94 8.46-9.84-.23-12.52 2.63-1.67 5.58-3.05 8.71-3.36z"/>
    <path fill="#bfc0ba" d="M228.39 256.93c.44.25 1.32.76 1.76 1.02-7.16 6.51-15.01 12.18-22.68 18.05h-2.87c7.5-6.92 16.81-11.54 23.79-19.07z"/>
    <path fill="#d8d9d1" d="M288.83 258.15c6.39 2.3-4.16 2.21-6.97 3.63-4.02-1.49 4.98-3.59 6.97-3.63z"/>
    <path fill="#d5d6d0" d="M293.26 262.23c3.93-2.27 2.99 9.44-1.19 6.76-4.03-.78-.78-5.34 1.19-6.76z"/>
    <path fill="#c5c6be" d="M275.74 276c-2.79-5.32 8.82-17.09 8.18-7.25-7.53 2.07-6.42 6.98.7 7.25h-8.88z"/>
    <path fill="#cccdc7" d="M274.37 266.36c3.61 2.53-8.86 8 0 0z"/>
    <path fill="#949590" d="M171.58 276c3.08-3.16-4.42-10.1.85-8.64 1.71 5.56 1.92-3.84 4.45 2.73-.4 1.72-2.96 2.19-.72 5.91h-4.58z"/>
    <path fill="#cecfca" d="M346.58 267.86c1.35 5.34-.8 8.29 3.87 1.49 8.51-2.02 1.51 2.84-1 6.65h-4.72c.53-2.75.99-5.49 1.85-8.14z"/>
  </g>
</svg>
